<svg width="512" height="512" viewBox="0 0 512 512" fill="none" xmlns="http://www.w3.org/2000/svg">
  <!-- Background circle -->
  <circle cx="256" cy="256" r="256" fill="#1e40af"/>
  
  <!-- Safety helmet icon -->
  <path d="M256 80C200 80 150 120 150 180V220C150 240 170 260 190 260H322C342 260 362 240 362 220V180C362 120 312 80 256 80Z" fill="white" stroke="#1e40af" stroke-width="4"/>
  
  <!-- Camera icon -->
  <rect x="200" y="300" width="112" height="80" rx="8" fill="white"/>
  <circle cx="256" cy="340" r="20" fill="#1e40af"/>
  <rect x="240" y="360" width="32" height="8" rx="4" fill="#1e40af"/>
  
  <!-- AI sparkle -->
  <path d="M350 150L360 160L350 170L340 160L350 150Z" fill="#fbbf24"/>
  <path d="M380 120L385 125L380 130L375 125L380 120Z" fill="#fbbf24"/>
  <path d="M320 200L325 205L320 210L315 205L320 200Z" fill="#fbbf24"/>
</svg>
